inDegrees=no
num_controls=7
num_derivatives=13
num_iterations=114
num_multipliers=7
num_parameters=0
num_slacks=7
num_states=26
objective=0.455760
objective_accelerations=0.008808
objective_balance=0.006331
objective_effort=0.012797
objective_height=0.425391
objective_ligament=0.002433
solver_duration=1525.636333
status=Solve_Succeeded
success=true
DataType=double
version=3
OpenSimVersion=4.5
endheader
time	/jointset/ground_pelvis/pelvis_tilt/value	/jointset/ground_pelvis/pelvis_tx/value	/jointset/ground_pelvis/pelvis_ty/value	/jointset/hip_l/hip_flexion_l/value	/jointset/hip_l/hip_adduction_l/value	/jointset/hip_l/hip_rotation_l/value	/jointset/back/lumbar_extension/value	/jointset/patellofemoral_l/patellar_flexion_l/value	/jointset/knee_l/knee_flexion_l/value	/jointset/knee_l/knee_adduction_l/value	/jointset/knee_l/knee_rotation_l/value	/jointset/ankle_l/ankle_angle_l/value	/jointset/subtalar_l/subtalar_angle_l/value	/jointset/ground_pelvis/pelvis_tilt/speed	/jointset/ground_pelvis/pelvis_tx/speed	/jointset/ground_pelvis/pelvis_ty/speed	/jointset/hip_l/hip_flexion_l/speed	/jointset/hip_l/hip_adduction_l/speed	/jointset/hip_l/hip_rotation_l/speed	/jointset/back/lumbar_extension/speed	/jointset/patellofemoral_l/patellar_flexion_l/speed	/jointset/knee_l/knee_flexion_l/speed	/jointset/knee_l/knee_adduction_l/speed	/jointset/knee_l/knee_rotation_l/speed	/jointset/ankle_l/ankle_angle_l/speed	/jointset/subtalar_l/subtalar_angle_l/speed	/forceset/tau_hip_flexion_l	/forceset/tau_hip_adduction_l	/forceset/tau_hip_rotation_l	/forceset/tau_knee_flexion_l	/forceset/tau_ankle_angle_l	/forceset/tau_subtalar_angle_l	/forceset/tau_lumbar_extension	lambda_cid13_p0	lambda_cid13_p1	lambda_cid13_p2	lambda_cid13_p3	lambda_cid13_p4	lambda_cid13_p5	lambda_cid14_p0	/jointset/ground_pelvis/pelvis_tilt/accel	/jointset/ground_pelvis/pelvis_tx/accel	/jointset/ground_pelvis/pelvis_ty/accel	/jointset/hip_l/hip_flexion_l/accel	/jointset/hip_l/hip_adduction_l/accel	/jointset/hip_l/hip_rotation_l/accel	/jointset/back/lumbar_extension/accel	/jointset/patellofemoral_l/patellar_flexion_l/accel	/jointset/knee_l/knee_flexion_l/accel	/jointset/knee_l/knee_adduction_l/accel	/jointset/knee_l/knee_rotation_l/accel	/jointset/ankle_l/ankle_angle_l/accel	/jointset/subtalar_l/subtalar_angle_l/accel	gamma_cid13_p0	gamma_cid13_p1	gamma_cid13_p2	gamma_cid13_p3	gamma_cid13_p4	gamma_cid13_p5	gamma_cid14_p0
0.5	-0.2111875390784017	0.0305571175393367	0.8782301312707879	0.5637773954185232	-0.2798012853706898	-0.2144566847211479	-0.2548857047175449	0.1978000619263153	0.1978000619259015	-0.1744723115582851	0.1742364820650647	-0.008213312891274057	-0.02317277108945969	-0.1237079091535136	-0.08409302171373631	-0.06291341001553465	0.5089567076523096	-0.04872107546178844	0.1588086851943348	-0.6302403793114867	0.4554011530114407	0.4554011530114898	0.0002520631007853466	0.0007505681112421452	0.08344263563695667	-0.0340447778765787	-0.1011779465483283	0.00619940108961181	-0.01809891712738902	-0.1223895076689479	0.08281489823672977	0.02692722389204437	0.125457801733224	-13.77688367681709	-15.40477763560154	9.04691063711444	5.95528432687343	-625.0731468350626	-72.09383657715837	-41.83093876776028	0.1092371098212019	0.04532455871303847	-0.01393851102244274	-0.2839637807249737	0.06826767711321477	-0.08199331073996442	0.5051679818376297	-0.2411893555502016	-0.241189355550202	-0.00110485120656215	-0.003660839607998276	-0.05585395684493907	0.05054903580652456	3.410875220646423e-09	-3.617766847967101e-08	5.630696271335001e-09	-4.609854059662589e-09	-1.303035081731373e-09	-1.206956193141565e-08	-3.047160408903482e-09
0.51	-0.2124190658066405	0.02971860744960185	0.8776003935731795	0.568852069644369	-0.2802851057086705	-0.2128730461221334	-0.2611619904798058	0.2023413904132577	0.2023413904130868	-0.1744699935565719	0.1742439551013431	-0.007381779949523232	-0.02351072650516557	-0.1225853449154605	-0.08359360102978705	-0.06302390528336055	0.5059067928606765	-0.04804075937727718	0.1578996846564382	-0.6249325916372296	0.4528009374268345	0.4528009374269766	0.000205242385636853	0.0007424873115665602	0.08285612248582901	-0.0335449339382524	-0.1046329903570689	0.007434957505354125	-0.01779066915021816	-0.121268311677865	0.08084004492408034	0.02764728516408236	0.1285792953892899	-14.41381255545692	-15.58435895721007	9.050845948026025	6.04133880894088	-625.7108488248624	-71.90654987506517	-41.85338058475322	0.1155803147347727	0.05455915313525617	-0.008071496378580617	-0.3262064803642962	0.06825284692771927	-0.09825894614699514	0.5562113855375422	-0.2789781106472961	-0.2789781106334726	-0.007420232747889404	0.0003827540845575267	-0.06122433787282136	0.04991269594310015	3.736148115906054e-09	-3.526808886616645e-08	4.69160858498266e-09	-4.947640999575686e-09	4.499773112433368e-10	-1.169503677560719e-08	-2.840561547459286e-09
0.52	-0.213639004045695	0.02888555323268607	0.8769698576305505	0.5738941044919013	-0.280762055031251	-0.2112990786326674	-0.2673826729202589	0.2068548086542109	0.2068548086542751	-0.1744683336722127	0.1742513002204645	-0.006556347008009652	-0.02384364135686875	-0.121390211319947	-0.0830018471499222	-0.06307305901967285	0.5024288319897535	-0.04734687238045091	0.1568744632852473	-0.6191197149502636	0.4498191038129757	0.4498191038132114	0.0001204396273256766	0.0007249846811659183	0.08222263558966109	-0.03303666507603097	-0.1080880341659035	0.008670513921059185	-0.01748242117308554	-0.1201471156867993	0.07886519161142032	0.02836734643608156	0.1317007890452895	-15.05301528258207	-15.76339451631006	9.054525647149354	6.129459015358357	-626.3841253807815	-71.72457864494523	-41.87293337896038	0.1237509813130819	0.06379119789623747	-0.00167020471972033	-0.3695729965829724	0.0709818595762106	-0.1052374773988374	0.606185784379241	-0.3175129614006967	-0.3175129614006224	-0.008701259839128807	-0.005545205753009087	-0.06524870585289677	0.05223402058555886	4.139978285769779e-09	-3.411591945221164e-08	3.603645990662544e-09	-5.338474774933407e-09	2.320170092560889e-09	-1.111746563559637e-08	-2.600728422374318e-09
0.53	-0.214846649184554	0.02805884626306719	0.8763391327066774	0.5788993329272193	-0.2812319643452695	-0.2097359311466932	-0.2735427943059618	0.2113365777158737	0.2113365777159034	-0.1744676189172874	0.174258423215069	-0.005737478525553298	-0.02417139718201102	-0.120127072730508	-0.08232710888445209	-0.06306168654149942	0.4985522318438316	-0.04662981577398801	0.1557367340736463	-0.612831203899651	0.4464748284794325	0.446474828479521	2.365134492793145e-05	0.0006970697539021317	0.08154221788664807	-0.03251040162433168	-0.1114240935155574	0.009865127804666991	-0.01719235614755126	-0.1191119659575531	0.0769613799134726	0.02905779707757685	0.1347130258254611	-15.66955968477559	-15.93335771660972	9.056553603173352	6.231953655986644	-627.022826800607	-71.54034460696721	-41.88964628738756	0.1293573165993969	0.07117971566613626	0.004077516597305337	-0.4063964198520061	0.07284791599234099	-0.1207881770713393	0.651187508850964	-0.3518663304367184	-0.3518663304590431	-0.01000175072256511	-0.001798555604460011	-0.07076449443629446	0.05344206045426927	4.495977302603282e-09	-3.320915932456777e-08	2.519667049967407e-09	-5.65139602100498e-09	3.912967366729531e-09	-1.065748089732187e-08	-2.369315516477621e-09
0.54	-0.2160413105337345	0.02723925959106138	0.8757088288160892	0.5838638567818288	-0.2816945470222678	-0.2081847104596389	-0.2796378298324675	0.2157831077219829	0.215783107721976	-0.1744678388728431	0.1742651902765175	-0.004925679458508302	-0.02449376646203789	-0.1187934533875113	-0.08157778762731144	-0.06298885236269607	0.4942879158476761	-0.04588154497508591	0.1544891035008278	-0.6061025431110924	0.4427712927016737	0.4427712927016138	-6.650246877066825e-05	0.0006537980509820174	0.08080875250720967	-0.03195935605294627	-0.1147601528652567	0.01105974168827447	-0.01690229112204387	-0.1180768162282809	0.0750575682155428	0.02974824771907587	0.1377252626055774	-16.28875334415953	-16.10276615071418	9.058389306483445	6.337231959921384	-627.7028951124239	-71.36197330478954	-41.90357843438809	0.1378471320244282	0.07870779623039739	0.01062213540626737	-0.4471161666296847	0.07722469806404644	-0.1272177496423098	0.694215731968296	-0.3893650502437872	-0.3893650502439698	-0.007374366099324701	-0.008616560884279149	-0.0758582411379165	0.05719044452278723	4.799056745871429e-09	-3.257391585411899e-08	1.440095555836077e-09	-5.878116170845065e-09	5.198858973414268e-09	-1.032759175245778e-08	-2.147218597767949e-09
